<?xml version="1.0" encoding="UTF-8"?><svg id="Layer_1" xmlns="http://www.w3.org/2000/svg" xmlns:xlink="http://www.w3.org/1999/xlink" viewBox="0 0 253 60"><defs><style>.cls-1{fill:url(#linear-gradient-2);}.cls-2,.cls-3{fill:#404041;}.cls-4{fill:url(#linear-gradient);}.cls-4,.cls-5,.cls-6,.cls-3{fill-rule:evenodd;}.cls-5{fill:#737577;}.cls-6{fill:url(#linear-gradient-5);}.cls-7{fill:url(#linear-gradient-3);}.cls-8{fill:url(#linear-gradient-4);}</style><linearGradient id="linear-gradient" x1="13.21192" y1="31.7252" x2="19.58615" y2="16.70845" gradientUnits="userSpaceOnUse"><stop offset=".00529" stop-color="#f6c83c"/><stop offset=".17028" stop-color="#f5c33b"/><stop offset=".35951" stop-color="#f4b538"/><stop offset=".56067" stop-color="#f39e33"/><stop offset=".77011" stop-color="#f17e2d"/><stop offset=".98407" stop-color="#ef5524"/><stop offset="1" stop-color="#ef5224"/></linearGradient><linearGradient id="linear-gradient-2" x1="41.13115" y1="-.11207" x2="45.52797" y2="18.93265" gradientUnits="userSpaceOnUse"><stop offset="0" stop-color="#f6c83c"/><stop offset=".13843" stop-color="#f5c03a"/><stop offset=".34703" stop-color="#f2ab36"/><stop offset=".59849" stop-color="#ee8a2f"/><stop offset=".83598" stop-color="#ea6428"/></linearGradient><linearGradient id="linear-gradient-3" x1="14.58145" y1="37.80016" x2="53.63891" y2="37.80016" gradientUnits="userSpaceOnUse"><stop offset="0" stop-color="#bdd632"/><stop offset=".0785" stop-color="#b6d333"/><stop offset=".185" stop-color="#a5cc37"/><stop offset=".30758" stop-color="#89c03d"/><stop offset=".44116" stop-color="#61af45"/><stop offset=".49697" stop-color="#4fa84a"/><stop offset=".59101" stop-color="#6ab343"/><stop offset=".76386" stop-color="#96c639"/><stop offset=".89788" stop-color="#b2d133"/><stop offset=".97576" stop-color="#bdd631"/></linearGradient><linearGradient id="linear-gradient-4" x1="27.48937" y1="-.19985" x2="22.47013" y2="18.53222" gradientUnits="userSpaceOnUse"><stop offset="0" stop-color="#f6c83c"/><stop offset=".14631" stop-color="#f5c03a"/><stop offset=".3668" stop-color="#f2ab36"/><stop offset=".63258" stop-color="#ee8a2f"/><stop offset=".8836" stop-color="#ea6428"/></linearGradient><linearGradient id="linear-gradient-5" x1="54.95197" y1="31.72521" x2="48.57772" y2="16.70842" xlink:href="#linear-gradient"/></defs><g><path class="cls-3" d="m100.94155,31.05765c0-1.97456-.29398-3.83348-.87453-5.58254-.58069-1.75325-1.51422-3.17164-2.78909-4.26339-1.27501-1.08265-2.87949-1.62463-4.82431-1.62463-1.49497,0-2.82105.31849-3.95625.94873-1.12828.62753-2.09511,1.50072-2.87426,2.60632-.78527,1.11021-1.36853,2.35683-1.7626,3.73682-.39726,1.38016-.59253,2.83507-.59253,4.35995,0,1.82174.32393,3.61913.97376,5.40909.65575,1.79165,1.66486,3.25601,3.04319,4.40392,1.3695,1.14718,3.0785,1.71929,5.11864,1.71929,1.89479,0,3.49304-.6113,4.78225-1.82883,1.30174-1.21958,2.25015-2.72487,2.85484-4.53712.60236-1.80214.90091-3.59109.90091-5.3476h0Zm-20.66348,15.5876c-1.49936,0-2.72635-1.22934-2.72635-2.72383V3.82266c0-1.49448,1.22699-2.7213,2.72635-2.7213h.26407c1.49445,0,2.72584,1.22682,2.72584,2.7213v13.39392c0,1.50189.02569,2.72383.05917,2.72383.0296,0,.84071-.93658,1.79961-2.09595,0,0,.54368-.65731,2.21276-1.54856,1.67144-.8926,3.78075-1.33283,6.33012-1.33283,2.21952,0,4.16655.42146,5.85624,1.25711,1.69446.83866,3.08781,1.98166,4.18514,3.40749,1.09632,1.43054,1.92201,3.0893,2.47008,4.9709.56178,1.87211.83461,3.88202.83461,6.01889,0,2.96591-.47097,5.71948-1.42648,8.27019-.94855,2.55071-2.42105,4.60574-4.42774,6.16715-2.00988,1.56106-4.48217,2.34717-7.43201,2.34717-1.76004,0-3.33225-.25157-4.72917-.75671-1.39283-.5146-2.57928-1.14822-3.57634-1.93433-.98425-.78136-1.74536-1.58675-2.27803-2.41783h.00218c-.06644,0-.12679.9819-.12679,2.17779,0,1.19555-1.22211,2.17437-2.72552,2.17437h-.01773Z"/><path class="cls-3" d="m133.04638,34.61661v-.00135c0-1.50255-.45916-2.74072-1.02853-2.75558l-.81145-.03722c-.81283-.03448-1.40114-.06083-1.77576-.06083-2.60753,0-5.05275.40605-7.33313,1.22259-2.28582.80539-3.42455,2.3857-3.42455,4.74101,0,1.51945.59506,2.74543,1.80498,3.66172,1.20539.92103,2.53011,1.38425,3.97367,1.38425,2.74277,0,4.86205-.76111,6.35716-2.26941,1.49244-1.52083,2.23762-3.47309,2.23762-5.88518h0Zm-16.62594-11.88967l-.12831-2.13988c-.0923-1.49701.95534-3.21242,2.33263-3.81087,0,0,4.15558-1.81312,7.69051-1.81312,2.92197,0,5.30092.47301,7.13481,1.41482,1.84476.95112,3.1823,2.36562,4.03976,4.25903.84327,1.88395,1.27061,4.26495,1.27061,7.12872v10.07521c0,1.50733.02164,3.95996.04667,5.45714,0,0,.03853,2.12534.18731,3.34728h-2.60009c-1.5039,0-2.72244-.89801-2.72244-1.99755,0-1.0975-.03448-1.99755-.06357-1.99755-.03788,0-.88585.91019-1.89209,2.01988,0,0-.27116.30191-1.87855,1.27602-1.59655.96632-3.56232,1.45591-5.89141,1.45591-3.47711,0-6.23577-.80878-8.27847-2.41884-2.04779-1.61348-3.06753-4.03367-3.06753-7.2579,0-2.38878.74757-4.35355,2.25047-5.89127,1.50411-1.55092,3.34461-2.64877,5.52306-3.31484,2.1852-.66693,4.39087-.98948,6.62174-.98948,2.54867,0,4.57056.03313,6.05082.11294,0-1.85134-.24613-3.36455-.73033-4.5339-.47876-1.15889-1.2936-2.04374-2.41544-2.63405-1.12458-.59104-2.62308-.88755-4.49893-.88755-1.62189,0-3.24164.28906-4.85948.86016-1.62241.5685-2.99347,1.33283-4.12175,2.27969Z"/><path class="cls-3" d="m151.14277,46.64525c-1.50255,0-2.72314-1.22934-2.72314-2.72383v-25.51234c0-1.5012,1.2003-2.73193,2.67581-2.73193,1.46876,0,2.67647,1.09058,2.67647,2.40533,0,1.32369.02233,2.39955.05141,2.39955.03313,0,.72898-1.0231,1.54787-2.29101,0,0,.44833-.68165,1.92453-1.69734,1.48905-1.02649,3.04637-1.53063,4.68485-1.53063,1.09144,0,2.34716.13576,3.76859.42146v2.37033c0,1.50459-.87367,2.49019-1.94683,2.19299h-1.23073c-1.69394,0-3.17759.50784-4.44211,1.53198-1.26321,1.01164-2.25182,2.47766-2.95106,4.3846-.6965,1.90559-1.05287,4.14034-1.05287,6.70934v11.34765c0,1.49448-1.22734,2.72383-2.72989,2.72383h-.25292Z"/><path class="cls-3" d="m169.4542,45.67219l.13928-2.37421c.08791-1.49718,1.20504-2.1717,2.48784-1.49379l1.33148.38341c1.34433.3868,2.49525.5836,3.46292.5836.96632,0,1.88395-.14337,2.76035-.43278.86622-.2901,1.59046-.76956,2.17471-1.43767.58291-.66946.88111-1.52758.88111-2.57706,0-1.22633-.50784-2.20078-1.51744-2.91217-1.0116-.71035-2.64468-1.62968-4.92558-2.75457-2.27211-1.12828-4.00663-2.28021-5.18868-3.4643-1.1915-1.19268-1.78317-2.7615-1.78317-4.71833,0-2.07666.47537-3.82673,1.41125-5.24951.94132-1.42278,2.23153-2.48968,3.86869-3.20107,1.64319-.70699,3.51769-1.06066,5.63223-1.06066,2.0767,0,4.45021.40117,7.12266,1.21484l-.21774,2.26923c-.13932,1.49327-.96022,2.38148-1.81363,1.98318l-1.33283-.33338c-1.32809-.34096-2.37421-.50985-3.12686-.50985-1.56882,0-2.88136.33099-3.92073.98138-1.02919.64325-1.54922,1.57661-1.54922,2.78466,0,1.38473.44023,2.38099,1.31594,2.98298.87705.5944,2.51823,1.46436,4.90667,2.59316,2.40464,1.12423,4.19865,2.31334,5.39489,3.57011,1.19285,1.25372,1.7913,3.00209,1.7913,5.23767,0,2.09529-.4977,3.85921-1.49511,5.31952-1.00149,1.45557-2.31608,2.54396-3.95996,3.25397-1.64457.72559-3.43117,1.09144-5.36515,1.09144-3.50284,0-6.32336-.5792-8.48523-1.72978Z"/><path class="cls-3" d="m193.03404,59.69364l.14406-1.93398c.11969-1.49715,1.05894-2.50979,2.09491-2.24237h.78984c1.52083,0,2.7867-.53828,3.81188-1.61414,1.0116-1.07655,1.77167-2.25351,2.26872-3.51059.49229-1.25611.73773-2.0902.73773-2.53281,0-.19811-.05747-.47367-.17377-.82364-.12374-.35703-.27456-.76277-.4639-1.23343-.18797-.46287-.33744-.87232-.46117-1.22934l-9.58679-26.33279c-.52069-1.40737.2928-2.56339,1.7859-2.56339h.8013c1.50529,0,3.10928,1.1665,3.5745,2.59652l6.64321,20.44186c.46865,1.42887.87775,2.5923.90884,2.5923.03043-.00135.44362-1.16342.92034-2.58586l6.79673-20.45592c.46795-1.42884,2.09019-2.5889,3.58464-2.5889h.29959c1.49781,0,2.30794,1.15601,1.8082,2.57l-9.56788,26.51484c-.51595,1.41264-1.37881,3.71448-1.9076,5.12272,0,0-1.01368,2.63828-1.78794,4.22943-.77156,1.5871-1.90763,2.99125-3.40544,4.21017-1.50729,1.21179-3.40818,1.82104-5.73506,1.82104-.84863,0-2.13618-.14742-3.88084-.45172Z"/><g><path class="cls-3" d="m233.16989,41.38494c0-.76551-.11363-1.486-.33743-2.16325-.22588-.68026-.58834-1.23004-1.08265-1.65202-.49365-.4206-1.11578-.63023-1.86976-.63023-.57951,0-1.09345.12308-1.53298.36721-.43753.24412-.81214.58221-1.11443,1.0106-.3043.42974-.53083.91258-.68296,1.44747-.15352.53523-.22857,1.10055-.22857,1.69055,0,.70599.12374,1.4035.376,2.09764.25492.69346.64643,1.26116,1.17931,1.70644.53153.44393,1.19354.66541,1.98335.66541.73507,0,1.35447-.23602,1.85487-.70834.50449-.47301.871-1.05492,1.10768-1.75817.23194-.6999.34758-1.39169.34758-2.0733h0Zm-8.00917,6.04237c-.5809,0-1.05627-.47606-1.05627-1.05523v-15.54433c0-.57681.47537-1.05287,1.05627-1.05287h.1021c.57951,0,1.05828.47606,1.05828,1.05287v5.19269c0,.58259.00813,1.05561.02163,1.05561.01014,0,.32528-.36246.69921-.81214,0,0,.20828-.25562.85545-.60119.64848-.34488,1.46602-.51595,2.45467-.51595.85948,0,1.61414.16366,2.26941.48825.65662.32459,1.1969.76682,1.62359,1.31999.42399.55382.74452,1.19825.95686,1.92689.21639.72489.32189,1.50494.32189,2.33297,0,1.14888-.18121,2.21699-.55043,3.20564-.36786.98796-.93997,1.78452-1.71763,2.38975-.77901.6052-1.73722.91019-2.88139.91019-.68162,0-1.29157-.09805-1.83324-.29315-.53894-.19981-.99945-.44462-1.38556-.74923-.38206-.30464-.67555-.61639-.8818-.93793h0c-.02638,0-.05072.38071-.05072.84458,0,.46356-.47201.84258-1.05626.84258h-.00606Z"/><path class="cls-2" d="m237.22111,48.42811s.20625-.51494.988-.51494c.75193,0,.94938.80269.94938.80269.08116.59779.30569,1.03328.67421,1.30579.49431.36852,1.1692.55247,2.02529.55247.92168,0,1.63307-.18395,2.13483-.55247.50178-.36922.84191-.8852,1.01838-1.54922.10279-.40505.15147-1.25711.14337-2.55511-.87031,1.02549-1.95427,1.53773-3.25261,1.53773-1.61484,0-2.86516-.58256-3.75036-1.74872-.88516-1.16477-1.32674-2.56186-1.32674-4.1929,0-1.12053.2022-2.15512.60794-3.10319.40571-.94741.99405-1.6794,1.76492-2.19604.76886-.51629,1.67636-.77426,2.71573-.77426,1.38761,0,2.53108.56023,3.42978,1.68141v-1.41599s.27861-.49839.90614-.49839c.63023,0,.92982.49839.92982.49839v10.15619c0,1.82918-.18599,3.12548-.55857,3.88895-.37261.76312-.96161,1.36596-1.77036,1.80955-.80674.44092-1.80214.6634-2.98215.6634-1.39979,0-2.53243-.31513-3.3953-.94572-.86286-.63124-1.2801-1.58066-1.25171-2.84961Zm1.65001-7.05806c0,1.54112.30496,2.665.91694,3.37435.61335.70734,1.38016,1.06236,2.30185,1.06236.91563,0,1.68179-.35197,2.29984-1.05696.62144-.7046.93183-1.80889.93183-3.31348,0-1.43833-.31918-2.52229-.95752-3.25262-.63837-.73033-1.40723-1.0948-2.30593-1.0948-.88585,0-1.63779.35907-2.25788,1.07721-.61943.72018-.92913,1.78794-.92913,3.20394Z"/><path class="cls-2" d="m221.99732,46.30917c0,.59679-.48347,1.07926-1.07787,1.07926-.59779,0-1.07926-.48247-1.07926-1.07926,0-.59506.48146-1.07856,1.07926-1.07856.5944,0,1.07787.4835,1.07787,1.07856Z"/></g></g><path class="cls-4" d="m31.82954,22.63832c-.00812-.13917-.05231-.27312-.12856-.39039-.16906-.22081-.37418-.39187-.61745-.51301-4.80167-2.31192-9.8513-4.2689-14.77376-6.3136-.10089-.03776-.20547-.07117-.31479-.10272-1.1816-.30805-2.42092-.28629-3.58867.06496-2.67701,1.16657-5.3513,2.34277-8.02088,3.52758-.41568.17258-.75241.47915-.95249.87644-.20381.44605-.17984.90913.07321,1.38876.08707.15824.19065.30484.31109.43897,2.95166,3.20671,5.90193,6.41428,8.85124,9.62237.38835.42107.93629.70822,1.49134.84082.72439.1778,1.52002.10897,2.18266-.24092.60871-.33573,1.2167-.67277,1.82403-1.01088,4.27429-2.36184,8.54688-4.72555,12.81847-7.09078l.0179-.00808c.30097-.17427.54694-.36983.73016-.66807.07017-.12974.10389-.27468.0965-.42145"/><path class="cls-5" d="m1.84679,23.15219c0-1.30491.718-1.58698,1.59997-.62689l8.60593,9.37471c.87524.96061,1.59662,2.80924,1.59662,4.11501l-.00743,14.15935c-.00739,1.30912-.56818,1.46671-1.24503.35293l-9.34047-15.24444c-.6792-1.10634-1.23556-3.08053-1.23556-4.38495l.02598-7.74572Z"/><path class="cls-1" d="m53.6578,5.79204c-.03645-.63414-.31175-1.23591-.74332-1.69851-.58-.62115-1.29022-.78851-2.09767-.91134-1.69647-.25778-11.83692-1.8289-12.68518-1.95663-1.12085-.16868-2.39325-.53325-3.21348.51895-.46999.60311-.42276,1.32398-.42107,2.04349.002.65594.00539,11.15286.01147,13.77687.00269,1.07366-.37387,3.10164,1.01154,3.49168.6991.19687,1.39823-.21103,2.02446-.4759.47507-.20095,11.34095-4.79054,12.24182-5.17146.967-.40894,1.96776-.73116,2.68036-1.54431.52368-.59724.89617-1.34053.99133-2.13312.07691-.64039.20039-5.91375.19974-5.93973h0Z"/><path class="cls-5" d="m66.32881,23.15219c-.00404-1.30491-.72643-1.58698-1.60201-.62689l-8.61066,9.37471c-.88062.96061-1.59762,2.80924-1.59762,4.11501l.0179,14.15935c0,1.30912.55233,1.46671,1.23929.35293l9.34113-15.24444c.68358-1.10634,1.23356-3.08053,1.23356-4.38495l-.02159-7.74572Z"/><path class="cls-7" d="m53.48775,35.17624c-.35124-1.1563-1.09183-2.07303-2.13647-2.65134-.8516-.47137-11.00591-6.09766-12.70273-7.02299-1.60405-.87541-3.11394-2.01195-5.03447-1.81017-.95083.10002-1.69547.52113-2.51469.97999-.83882.47016-11.01165,6.13069-12.70342,7.07275-.76053.4238-1.66613.78986-2.31157,1.38303-.87492.80472-1.50115,1.97619-1.50115,3.17838,0,4.56109-.00404,13.9822,0,14.13133,0,.97377.65594,1.67691,1.63846,1.45323.40559-.09246.78212-.34516,1.14718-.53412.43188-.22337,13.14477-6.84399,13.99637-7.28634.79698-.41433,1.56725-.71565,2.48063-.72777,1.8733-.02463,3.41526,1.03987,5.03378,1.8574,1.70628.86176,8.48987,4.32929,10.18164,5.19002.82293.41841,1.63676.86511,2.47185,1.25854.5962.28107,1.35335.37622,1.8014-.22268.27468-.36948.30435-.81888.30435-1.26023v-13.74094c0-.42411-.02768-.83543-.15116-1.24807-.04454-.14608.09311.30975,0,0Z"/><path class="cls-8" d="m14.47292,5.76675c.03645-.63418.31178-1.23594.74332-1.69851.57966-.62118,1.29026-.78869,2.09798-.91134,1.6965-.25795,11.83661-1.82876,12.68487-1.95663,1.12085-.16871,2.39325-.53329,3.21348.51892.46999.60329.42276,1.32401.42141,2.04336-.002.65625-.00539,11.15286-.01182,13.77704-.00269,1.07362.37418,3.10147-1.01188,3.49168-.6991.19687-1.39788-.21107-2.02411-.47593-.47538-.20091-11.3406-4.79051-12.24182-5.1716-.96669-.40894-1.96741-.73119-2.68036-1.544-.52334-.59738-.89617-1.3407-.99098-2.13326-.07691-.64039-.20043-5.91375-.20008-5.93973h0Z"/><path class="cls-6" d="m36.33394,22.63832c.00843-.13917.05296-.27312.12956-.39039.16802-.22081.37384-.39187.61676-.51301,4.80167-2.31192,9.8513-4.2689,14.77376-6.3136.10054-.03776.20582-.07117.31479-.10272,1.18128-.30805,2.42123-.28629,3.58866.06496,2.67667,1.16657,5.3513,2.34277,8.02054,3.52758.41602.17258.75275.47915.95284.87644.20412.44605.17984.90913-.07356,1.38876-.08703.15824-.18996.30484-.31075.43897-2.95131,3.20671-5.90158,6.41428-8.85155,9.62237-.38735.42107-.93598.70822-1.49103.84082-.72408.1778-1.51967.10897-2.18266-.24092-.60837-.33573-1.2167-.67277-1.82437-1.01088-4.2736-2.36184-8.54653-4.72555-12.81813-7.09078l-.0179-.00808c-.30097-.17427-.54728-.36983-.73016-.66807-.06983-.12974-.10358-.27468-.09681-.42145"/></svg>